<?xml version="1.0" encoding="utf-8"?>
<!-- Generator: Adobe Illustrator 19.0.0, SVG Export Plug-In . SVG Version: 6.00 Build 0)  -->
<svg version="1.1" id="Layer_1" xmlns="http://www.w3.org/2000/svg" xmlns:xlink="http://www.w3.org/1999/xlink" x="0px" y="0px"
	 viewBox="-239 332.8 131.3 129.2" style="enable-background:new -239 332.8 131.3 129.2;" xml:space="preserve">
<style type="text/css">
	.st0{fill:url(#XMLID_2_);}
</style>
<g id="XMLID_489_">
	<g id="XMLID_490_">
		<linearGradient id="XMLID_2_" gradientUnits="userSpaceOnUse" x1="-238.1874" y1="398.6493" x2="-106.7874" y2="398.6493">
			<stop  offset="0" style="stop-color:#1372A2"/>
			<stop  offset="1" style="stop-color:#0E5D85"/>
		</linearGradient>
		<path id="XMLID_506_" class="st0" d="M-134.2,452.9v-67.1l5.5-5.2v77.5h-109.5v-98.2h87.6l-5.5,5.2h-76.6v87.8H-134.2z
			 M-178.7,410.3l58.5-55.2l3.8,3.6l-61.6,58h-10.9v-10.3l61.6-58.1l3.8,3.6l-58.6,55.2L-178.7,410.3z M-108.2,344.4
			c0.9,1.3,1.4,2.4,1.4,3.2c0,0.9-0.5,1.9-1.4,3.2l-4.1,3.9l-7.2-6.8l-3.8-3.6l4.1-3.9c1.4-0.9,2.5-1.3,3.4-1.3s2.1,0.4,3.4,1.3
			L-108.2,344.4z"/>
	</g>
</g>
</svg>
