<?xml version="1.0" encoding="utf-8"?>
<!-- Generator: Adobe Illustrator 19.0.0, SVG Export Plug-In . SVG Version: 6.00 Build 0)  -->
<svg version="1.1" id="Layer_1" xmlns="http://www.w3.org/2000/svg" xmlns:xlink="http://www.w3.org/1999/xlink" x="0px" y="0px"
	 viewBox="-239 332.8 131.3 129.2" style="enable-background:new -239 332.8 131.3 129.2;" xml:space="preserve">
<style type="text/css">
	.st0{fill:url(#XMLID_2_);}
</style>
<g id="XMLID_489_">
	<g id="XMLID_490_">
		<linearGradient id="XMLID_2_" gradientUnits="userSpaceOnUse" x1="-237.2788" y1="398" x2="-107.9788" y2="398">
			<stop  offset="0" style="stop-color:#1372A2"/>
			<stop  offset="1" style="stop-color:#0E5D85"/>
		</linearGradient>
		<path id="XMLID_506_" class="st0" d="M-127,354.9c12.6,11.9,19,26.3,19,43.1c0,16.8-6.3,31.2-19,43.1
			c-12.6,11.9-27.9,17.9-45.7,17.9s-33-6-45.7-17.9c-12.6-11.9-18.9-26.3-18.9-43.1c0-16.8,6.3-31.2,19-43.1
			c12.6-11.9,27.8-17.9,45.6-17.9S-139.6,343-127,354.9z M-203.7,395.7c0.4-10.4,1.6-19,3.4-25.8c-6-1.6-12.1-4-18.3-7.3
			c-8.3,9.3-12.8,20.4-13.4,33.1H-203.7z M-203.7,400.4H-232c0.6,12.7,5.1,23.8,13.4,33.1c7-3.5,13.1-6,18.3-7.3
			C-202.2,419.3-203.3,410.7-203.7,400.4z M-186.7,343.5c-10.9,2.3-20.4,7.4-28.2,15.2c3.3,1.8,8.7,3.8,16.2,6.2
			C-195.7,355.5-191.6,348.4-186.7,343.5z M-214.9,437.3c8.3,7.8,17.7,12.9,28.3,15.2c-5.2-5.1-9.3-12.3-12.4-21.7
			C-205.1,432.8-210.4,435-214.9,437.3z M-175.2,373.4c-8.1-0.4-14.8-1.2-20.2-2.3c-2.1,7.4-3.2,15.6-3.4,24.6h23.6
			C-175.2,395.7-175.2,373.4-175.2,373.4z M-198.8,400.4c0.2,9,1.3,17.2,3.4,24.6c6.4-1.4,13.1-2.2,20.2-2.6v-22H-198.8z
			 M-175.2,342.3c-7.5,1.8-13.7,9.8-18.6,24c5,1.2,11.2,2,18.6,2.3C-175.2,368.6-175.2,342.3-175.2,342.3z M-175.2,427.3
			c-7.5,0.4-13.7,1.2-18.6,2.3c5,14.3,11.2,22.3,18.6,24C-175.2,453.6-175.2,427.3-175.2,427.3z M-170.2,368.7
			c7.7-0.4,13.9-1.2,18.6-2.3c-2.1-6.6-4.8-12.1-8.2-16.3c-3.4-4.2-6.9-6.8-10.4-7.8V368.7z M-170.2,373.4v22.3h23.3
			c-0.2-9-1.3-17.2-3.4-24.6C-155.7,372.2-162.3,373-170.2,373.4z M-170.2,422.4c6.6,0.2,13.3,1.1,19.9,2.6
			c2.1-7.4,3.2-15.6,3.4-24.6h-23.3V422.4z M-170.2,453.7c3.5-1,7-3.6,10.4-7.8c3.4-4.2,6.2-9.6,8.2-16.3c-4.8-1.2-11-2-18.6-2.3
			V453.7z M-130.4,358.7c-8.3-7.8-17.7-12.9-28.3-15.2c4.8,4.7,8.8,11.9,12.1,21.7C-140.8,363.4-135.4,361.3-130.4,358.7z
			 M-158.7,452.6c10.6-2.3,20-7.4,28.3-15.2c-5-2.5-10.4-4.7-16.2-6.5C-149.9,440.6-153.9,447.9-158.7,452.6z M-141.6,400.4
			c-0.4,9.6-1.7,18.2-3.7,25.8c5.6,1.6,11.8,4,18.6,7.3c8.3-9.4,12.7-20.4,13.4-33.1H-141.6z M-141.6,395.7h28.3
			c-0.6-12.7-5.1-23.8-13.4-33.1c-7,3.5-13.2,6-18.3,7.3C-143.2,376.7-142,385.3-141.6,395.7z"/>
	</g>
</g>
</svg>
